<?xml version="1.0"?><svg xmlns="http://www.w3.org/2000/svg" viewBox="0 0 100 100"><g><path d="M36.2 53s2.9-4.4 6.4-4.3c0 0 .7.5.3 7.8h0c-3.7.5-6.7-3.5-6.7-3.5z" fill="#fcee21" stroke="#000" stroke-width="3" stroke-miterlimit="10"/><path d="M55.9 72.7c.7.3 9.7 3.4 18.4-1.3 4.7-2.6 7.2-6.3 11.1-12.2 3.2-4.9 5.2-9.3 6.5-12.4-7.3 1.5-11.8 0-14.6-1.5-5.3-2.9-5.5-7-11.4-9.4-5.8-2.4-11.3-.5-12-.3-7 2.5-9.8 8.8-10.4 10.1-4 9 .6 17.3 1 17.9 3.6 6.2 9.4 8.4 11.4 9.1z" fill="#fff" stroke="#000" stroke-width="3" stroke-miterlimit="10"/><ellipse transform="rotate(-27.514 55.241 47.616)" cx="55.2" cy="47.6" rx="2.6" ry="2.3" stroke="#000" stroke-width="2" stroke-miterlimit="10"/><g><path d="M64.4 78.5c-1.2-4.2-2.3-8.3-3.5-12.5 3.6 1.9 7.1 3.9 10.7 5.8 1.7 2.2 1.6 5.5-.4 7.4-1.9 1.8-5 1.5-6.8-.7z" fill="#ff7bac" stroke="#000" stroke-width="3" stroke-miterlimit="10"/><path d="M72.6 68.3L61.8 62l11.4-3.9c2.7.3 4.8 2.8 4.6 5.6-.2 2.7-2.5 4.8-5.2 4.6z" fill="#ff7bac" stroke="#000" stroke-width="3" stroke-miterlimit="10"/><path d="M72.8 54.3c-3.9 1.2-7.8 2.4-11.8 3.6 1.8-3.8 3.6-7.6 5.4-11.3 2.1-1.8 5.2-1.6 7 .5 1.8 2.1 1.5 5.4-.6 7.2z" fill="#ff7bac" stroke="#000" stroke-width="3" stroke-miterlimit="10"/></g></g><g><path d="M28.6 42.9c.6.3 4.9 2.2 6.3 7 1.1 3.8-.1 8-3 10.9" fill="none" stroke="#000" stroke-width="3" stroke-linecap="round" stroke-miterlimit="10"/><g><path d="M29.1 24.9c-.6 3.2-6.9 4.8-6.9 4.8s-5.4-3.7-4.8-6.9c.6-3.2 7.1-5.5 5.8 1.1 1.3-6.6 6.5-2.2 5.9 1z" fill="#8cc63f" stroke="#000" stroke-width="3" stroke-linejoin="round" stroke-miterlimit="10"/><path d="M13.4 25.6c3.2.6 4.8 6.9 4.8 6.9s-3.7 5.4-6.9 4.8c-3.2-.6-5.5-7.1 1.1-5.8-6.5-1.2-2.2-6.5 1-5.9z" fill="#8cc63f" stroke="#000" stroke-width="3" stroke-linejoin="round" stroke-miterlimit="10"/><path d="M14.2 41.4c.6-3.2 6.9-4.8 6.9-4.8s5.4 3.7 4.8 6.9c-.6 3.2-7.1 5.5-5.8-1.1-1.3 6.5-6.5 2.2-5.9-1z" fill="#8cc63f" stroke="#000" stroke-width="3" stroke-linejoin="round" stroke-miterlimit="10"/><path d="M29.9 40.6c-3.2-.6-4.8-6.9-4.8-6.9s3.7-5.4 6.9-4.8c3.2.6 5.5 7-1 5.9 6.5 1.1 2.2 6.3-1.1 5.8z" fill="#8cc63f" stroke="#000" stroke-width="3" stroke-linejoin="round" stroke-miterlimit="10"/></g></g><metadata xmlns:d="https://loading.io/stock/">
<d:name>bird</d:name>
<d:tags>bird,wished,love,peace,christmas</d:tags>
<d:license>by</d:license>
<d:slug>pc83pc</d:slug>
</metadata></svg>